<svg width="206" height="64" viewBox="0 0 206 64" fill="none" xmlns="http://www.w3.org/2000/svg">
<path d="M49.1131 32.0029C49.1131 28.7621 48.753 26.7716 47.8942 24.2915C47.8942 24.2915 46.1914 19.803 44.1246 17.6557C41.8834 15.3272 36.9978 13.449 36.9978 13.449C34.9203 12.7525 33.9318 12.8602 31.2274 12.8602L19.7437 12.8601C17.5649 12.8601 16.1395 15.2258 17.0391 17.2103C18.8019 21.0986 21.0064 26.8581 21.0064 31.3447C21.0064 36.0686 18.662 42.7116 16.9359 46.9624C16.1463 48.9068 17.5554 51.1098 19.654 51.1153L31.2274 51.1459C35.2274 51.1459 38.5417 50.4031 41.1702 48.9173C43.8369 47.3935 45.8179 45.2032 47.1131 42.3461C48.4464 39.4889 49.1131 36.0413 49.1131 32.0029Z" fill="#2B63E2"/>
<path d="M29.5296 37.4328H25.0547" stroke="white" stroke-width="2.14286" stroke-linecap="round"/>
<path d="M35.793 26.0042H25.0547" stroke="white" stroke-width="2.14286" stroke-linecap="round"/>
<path d="M34.2881 31.9013H25.0547" stroke="white" stroke-width="2.14286" stroke-linecap="round"/>
<path d="M28.9809 20.29H23.2666" stroke="white" stroke-width="2.14286" stroke-linecap="round"/>
<path d="M38.9809 43.1471H23.2666" stroke="white" stroke-width="2.14286" stroke-linecap="round"/>
<path d="M36.3083 19.1022L40.1377 17.8987C40.4396 17.8038 40.7693 17.8774 41.0022 18.0917L43.678 20.5534C43.9379 20.7925 44.0308 21.1633 43.9143 21.4967L42.6217 25.1948C42.5082 25.5196 42.2167 25.7491 41.8744 25.7834L36.0903 26.3618C35.5328 26.4175 35.0645 25.9477 35.122 25.3904L35.6933 19.8556C35.7296 19.5042 35.9713 19.2081 36.3083 19.1022Z" fill="#EF9E4D"/>
<path d="M39.0272 22.2676L35.3491 26.0783M40.1377 17.8987L36.3083 19.1022C35.9713 19.2081 35.7296 19.5042 35.6933 19.8556L35.122 25.3904C35.0645 25.9477 35.5328 26.4175 36.0903 26.3618L41.8744 25.7834C42.2167 25.7491 42.5082 25.5196 42.6217 25.1948L43.9143 21.4967C44.0308 21.1633 43.9379 20.7925 43.678 20.5534L41.0022 18.0917C40.7693 17.8774 40.4396 17.8038 40.1377 17.8987Z" stroke="white" stroke-width="1.42857" stroke-linecap="round"/>
<path d="M38.9379 22.3451L36.6315 24.7578" stroke="#171717" stroke-width="1.42857" stroke-linecap="round"/>
<circle cx="39.037" cy="22.1121" r="1.15512" fill="#171717"/>
<rect x="40.9946" y="13.3899" width="9.80556" height="3.80815" rx="1.90408" transform="rotate(42 40.9946 13.3899)" fill="#171717" stroke="white" stroke-width="1.42857" stroke-linecap="round"/>
<path d="M64 34.7863V12.4503H71.808C74.1973 12.4503 76.2667 12.909 78.016 13.8263C79.7867 14.7436 81.1627 16.045 82.144 17.7303C83.1253 19.4157 83.616 21.389 83.616 23.6503C83.616 25.9117 83.1253 27.8743 82.144 29.5383C81.1627 31.2023 79.7867 32.493 78.016 33.4103C76.2667 34.3277 74.1973 34.7863 71.808 34.7863H64ZM68.512 30.9463H71.648C73.9947 30.9463 75.7973 30.3063 77.056 29.0263C78.336 27.7463 78.976 25.9543 78.976 23.6503C78.976 21.3463 78.336 19.533 77.056 18.2103C75.7973 16.8877 73.9947 16.2263 71.648 16.2263H68.512V30.9463Z" fill="#2B63E2"/>
<path d="M130.75 34.7863V12.4503H135.262V21.5063C136.883 21.5063 138.291 21.1436 139.486 20.4183C140.681 19.6716 141.63 18.6263 142.334 17.2823C143.038 15.917 143.433 14.3063 143.518 12.4503H148.382C148.339 13.6663 148.094 14.861 147.646 16.0343C147.219 17.2077 146.654 18.2956 145.95 19.2983C145.267 20.2796 144.499 21.133 143.646 21.8583C142.793 22.5623 141.897 23.0636 140.958 23.3623C142.366 23.7676 143.646 24.4823 144.798 25.5063C145.95 26.5303 146.899 27.8317 147.646 29.4103C148.414 30.9677 148.905 32.7596 149.118 34.7863H144.254C144.126 32.7596 143.667 31.0423 142.878 29.6343C142.089 28.205 141.043 27.117 139.742 26.3703C138.462 25.6236 136.969 25.2503 135.262 25.2503V34.7863H130.75Z" fill="#2B63E2"/>
<path d="M158.379 35.0103C156.821 35.0103 155.445 34.6263 154.251 33.8583C153.056 33.069 152.117 31.9917 151.435 30.6263C150.752 29.2397 150.41 27.6716 150.41 25.9223C150.41 24.1516 150.752 22.5837 151.435 21.2183C152.117 19.853 153.056 18.7863 154.251 18.0183C155.445 17.229 156.821 16.8343 158.379 16.8343C159.786 16.8343 161.013 17.197 162.059 17.9223C163.104 18.6477 163.861 19.6503 164.33 20.9303V17.0583H168.875V34.7863H166.699C165.973 34.7863 165.397 34.573 164.971 34.1463C164.544 33.6983 164.33 33.1117 164.33 32.3863V30.8823C163.861 32.1836 163.104 33.197 162.059 33.9223C161.013 34.6477 159.786 35.0103 158.379 35.0103ZM159.659 31.0743C160.491 31.0743 161.258 30.8717 161.963 30.4663C162.667 30.061 163.232 29.4743 163.659 28.7063C164.107 27.9383 164.33 27.0103 164.33 25.9223C164.33 24.813 164.107 23.8743 163.659 23.1063C163.232 22.3383 162.667 21.7623 161.963 21.3783C161.258 20.973 160.491 20.7703 159.659 20.7703C158.869 20.7703 158.112 20.973 157.387 21.3783C156.683 21.7623 156.107 22.3383 155.659 23.1063C155.232 23.8743 155.019 24.813 155.019 25.9223C155.019 27.0103 155.232 27.9383 155.659 28.7063C156.107 29.4743 156.683 30.061 157.387 30.4663C158.112 30.8717 158.869 31.0743 159.659 31.0743Z" fill="#2B63E2"/>
<path d="M179.746 35.0103C178.466 35.0103 177.314 34.8077 176.29 34.4023C175.266 33.9757 174.413 33.389 173.73 32.6423C173.047 31.8957 172.567 31.0637 172.29 30.1463L176.514 29.1863C176.706 29.8903 177.09 30.4557 177.666 30.8823C178.242 31.2876 178.914 31.4903 179.682 31.4903C180.578 31.4903 181.25 31.3197 181.698 30.9783C182.167 30.637 182.402 30.2103 182.402 29.6983C182.402 29.165 182.157 28.7596 181.666 28.4823C181.197 28.1836 180.578 27.949 179.81 27.7783C179.063 27.5863 178.263 27.3836 177.41 27.1703C176.557 26.9356 175.746 26.637 174.978 26.2743C174.21 25.8903 173.581 25.3783 173.09 24.7383C172.621 24.077 172.386 23.2023 172.386 22.1143C172.386 21.1543 172.663 20.269 173.218 19.4583C173.794 18.6476 174.605 18.0077 175.65 17.5383C176.695 17.069 177.943 16.8343 179.394 16.8343C180.653 16.8343 181.762 17.0263 182.722 17.4103C183.682 17.7943 184.471 18.349 185.09 19.0743C185.709 19.7783 186.135 20.6103 186.37 21.5703L182.274 22.6583C182.082 21.9116 181.741 21.3463 181.25 20.9623C180.781 20.557 180.119 20.3543 179.266 20.3543C178.455 20.3543 177.837 20.5143 177.41 20.8343C176.983 21.133 176.77 21.5383 176.77 22.0503C176.77 22.5836 177.005 22.9997 177.474 23.2983C177.965 23.5757 178.583 23.821 179.33 24.0343C180.098 24.2263 180.909 24.4396 181.762 24.6743C182.615 24.8876 183.415 25.1863 184.162 25.5703C184.93 25.9543 185.549 26.477 186.018 27.1383C186.509 27.7997 186.754 28.6743 186.754 29.7623C186.754 30.7223 186.466 31.6077 185.89 32.4183C185.314 33.2077 184.503 33.837 183.458 34.3063C182.413 34.7757 181.175 35.0103 179.746 35.0103Z" fill="#2B63E2"/>
<path d="M121.126 17.0583C121.51 16.973 121.84 16.813 122.118 16.5783C122.395 16.3437 122.608 16.0663 122.758 15.7463C122.928 15.4263 123.014 15.1063 123.014 14.7863V12.6743H118.534V15.5223C118.534 15.9917 118.395 16.365 118.118 16.6423C117.862 16.9197 117.499 17.0583 117.03 17.0583H115.686V20.7383H118.438V29.2823C118.438 31.117 118.918 32.5357 119.878 33.5383C120.859 34.5197 122.182 35.0103 123.846 35.0103C124.571 35.0103 125.232 34.9037 125.83 34.6903C126.427 34.477 127.003 34.1463 127.558 33.6983L125.958 30.5943C125.744 30.765 125.52 30.893 125.286 30.9783C125.072 31.0637 124.838 31.1063 124.582 31.1063C124.176 31.1063 123.814 30.9676 123.494 30.6903C123.174 30.413 123.014 29.997 123.014 29.4423V20.7383H126.918V17.0583H121.126Z" fill="#2B63E2"/>
<path d="M99.1928 26.3383C99.1928 27.2556 99.0328 28.077 98.7128 28.8023C98.3928 29.5276 97.9341 30.1037 97.3368 30.5303C96.7394 30.9356 96.0354 31.1383 95.2248 31.1383C94.0514 31.1383 93.1021 30.7543 92.3768 29.9863C91.6514 29.197 91.2888 28.0877 91.2888 26.6583V17.0583H86.8088V27.4263C86.8088 29.0263 87.0861 30.3917 87.6408 31.5223C88.1954 32.653 88.9848 33.517 90.0088 34.1143C91.0541 34.7117 92.2808 35.0103 93.6888 35.0103C94.7768 35.0103 95.7687 34.7437 96.6647 34.2103C97.5821 33.6557 98.3288 32.8023 98.9048 31.6503C99.0089 31.4496 99.1049 31.2394 99.1928 31.0198V32.3863C99.1928 33.1117 99.4061 33.6983 99.8328 34.1463C100.281 34.573 100.867 34.7863 101.593 34.7863H103.737V17.0583H99.1928V26.3383Z" fill="#2B63E2"/>
<path d="M112.64 30.4024L112.637 17.0583H108.093L108.09 33.2505C108.09 33.7198 107.949 34.0931 107.668 34.3704C107.408 34.6478 107.04 34.7864 106.563 34.7864H110.635L110.647 34.7863C110.934 34.7797 111.452 34.5379 111.73 34.3064C112.011 34.0718 112.228 33.7945 112.379 33.4745C112.537 33.1841 112.623 32.8938 112.637 32.6035L112.64 30.4024Z" fill="#2B63E2"/>
<path d="M108.094 15.0663V9.91821H109.894C110.445 9.91821 110.922 10.0239 111.325 10.2354C111.733 10.4468 112.05 10.7467 112.276 11.1352C112.502 11.5236 112.615 11.9784 112.615 12.4996C112.615 13.0208 112.502 13.4732 112.276 13.8567C112.05 14.2402 111.733 14.5377 111.325 14.7491C110.922 14.9606 110.445 15.0663 109.894 15.0663H108.094Z" fill="#2B63E2"/>
<path d="M64 44.2516H65.3694L69.1703 52.8161H68.6952L72.51 44.2516H73.8794V53.9834H72.5938V45.5876L73.0969 45.6298L69.3938 53.9834H68.4856L64.7686 45.6298L65.2716 45.5876V53.9834H64V44.2516Z" fill="#171717"/>
<path d="M81.4295 54.0818C80.7494 54.0818 80.1113 53.9599 79.5151 53.7162C78.9188 53.4724 78.3972 53.1349 77.95 52.7036C77.5028 52.263 77.1535 51.738 76.902 51.1285C76.6598 50.5191 76.5387 49.8488 76.5387 49.1175C76.5387 48.3862 76.6598 47.7206 76.902 47.1205C77.1535 46.5205 77.5028 46.0002 77.95 45.5595C78.3972 45.1095 78.9188 44.7626 79.5151 44.5188C80.1113 44.2751 80.7494 44.1532 81.4295 44.1532C82.1188 44.1532 82.7616 44.2751 83.3578 44.5188C83.954 44.7626 84.4711 45.1095 84.9089 45.5595C85.3561 46.0002 85.7008 46.5205 85.943 47.1205C86.1945 47.7206 86.3203 48.3862 86.3203 49.1175C86.3203 49.8488 86.1945 50.5191 85.943 51.1285C85.7008 51.738 85.3561 52.263 84.9089 52.7036C84.4711 53.1349 83.954 53.4724 83.3578 53.7162C82.7616 53.9599 82.1188 54.0818 81.4295 54.0818ZM81.4295 52.9568C82.1188 52.9568 82.729 52.8021 83.26 52.4927C83.8003 52.1833 84.2242 51.7426 84.5316 51.1707C84.8484 50.5895 85.0067 49.9051 85.0067 49.1175C85.0067 48.33 84.8484 47.6502 84.5316 47.0783C84.2242 46.5064 83.8003 46.0658 83.26 45.7564C82.729 45.4376 82.1188 45.2783 81.4295 45.2783C80.7494 45.2783 80.1346 45.4376 79.5849 45.7564C79.0446 46.0658 78.6207 46.5064 78.3133 47.0783C78.0059 47.6502 77.8522 48.33 77.8522 49.1175C77.8522 49.9051 78.0059 50.5895 78.3133 51.1707C78.6207 51.7426 79.0446 52.1833 79.5849 52.4927C80.1346 52.8021 80.7494 52.9568 81.4295 52.9568Z" fill="#171717"/>
<path d="M96.6487 44.2516V53.9834H95.3771L90.2627 46.2627V53.9834H88.9911V44.2516H90.2627L95.3771 51.9583V44.2516H96.6487Z" fill="#171717"/>
<path d="M105.021 45.3064H101.066V48.5409H104.601V49.5957H101.066V52.9286H105.021V53.9834H99.7945V44.2516H105.021V45.3064Z" fill="#171717"/>
<path d="M107.112 44.2516H108.538L111.235 49.7363H110.648L113.331 44.2516H114.756L111.584 50.2988V53.9834H110.298V50.2988L107.112 44.2516Z" fill="#171717"/>
<path d="M121.164 44.2516H127.76V45.3064H125.119V53.9834H123.833V45.3064H121.164V44.2516Z" fill="#171717"/>
<path d="M130.331 53.9834V44.2516H133.461C134.225 44.2516 134.854 44.3782 135.347 44.6313C135.85 44.8845 136.223 45.2267 136.465 45.658C136.717 46.0799 136.843 46.5627 136.843 47.1065C136.843 47.7721 136.638 48.33 136.228 48.78C135.818 49.23 135.287 49.5253 134.635 49.666C135.138 49.8347 135.585 50.1113 135.976 50.4957C136.377 50.8707 136.708 51.3489 136.968 51.9302C137.239 52.5114 137.416 53.1958 137.499 53.9834H136.13C136.065 53.1865 135.878 52.5114 135.571 51.9583C135.273 51.3958 134.854 50.9598 134.313 50.6504C133.959 50.4535 133.559 50.3082 133.112 50.2144C132.664 50.1207 132.161 50.0738 131.602 50.0738V53.9834H130.331ZM131.602 49.005H133.475C134.164 49.005 134.677 48.8269 135.012 48.4706C135.357 48.105 135.529 47.6549 135.529 47.1205C135.529 46.5674 135.361 46.1267 135.026 45.7986C134.691 45.4705 134.169 45.3064 133.461 45.3064H131.602V49.005Z" fill="#171717"/>
<path d="M144.703 44.2516L148.224 53.9834H146.868L143.655 44.9548H144.269L141.055 53.9834H139.714L143.235 44.2516H144.703ZM141.433 50.7629H146.421L146.757 51.8176H141.111L141.433 50.7629Z" fill="#171717"/>
<path d="M154.688 54.0818C154.007 54.0818 153.374 53.9599 152.787 53.7162C152.2 53.4724 151.683 53.1302 151.236 52.6896C150.789 52.2489 150.44 51.7239 150.188 51.1145C149.946 50.5051 149.825 49.8394 149.825 49.1175C149.825 48.3862 149.946 47.7206 150.188 47.1205C150.44 46.5111 150.789 45.9861 151.236 45.5455C151.683 45.1048 152.2 44.7626 152.787 44.5188C153.374 44.2751 154.007 44.1532 154.688 44.1532C155.386 44.1532 156.034 44.2751 156.63 44.5188C157.226 44.7532 157.738 45.1048 158.167 45.5736C158.605 46.033 158.926 46.5955 159.131 47.2612L157.915 47.6409C157.655 46.9002 157.254 46.3236 156.714 45.9111C156.173 45.4892 155.503 45.2783 154.702 45.2783C154.031 45.2783 153.425 45.4376 152.885 45.7564C152.345 46.0658 151.916 46.5064 151.599 47.0783C151.292 47.6502 151.138 48.33 151.138 49.1175C151.138 49.8957 151.292 50.5754 151.599 51.1567C151.907 51.7286 152.326 52.1739 152.857 52.4927C153.397 52.8021 154.007 52.9568 154.688 52.9568C155.424 52.9568 156.08 52.7599 156.658 52.3661C157.245 51.9723 157.683 51.4286 157.971 50.7348L159.201 51.016C158.968 51.663 158.628 52.2161 158.181 52.6755C157.743 53.1255 157.221 53.4724 156.616 53.7162C156.02 53.9599 155.377 54.0818 154.688 54.0818Z" fill="#171717"/>
<path d="M161.991 53.9834V44.2516H163.262V48.4425C164.119 48.4237 164.837 48.2362 165.414 47.8799C166.001 47.5143 166.453 47.0221 166.77 46.4033C167.096 45.7752 167.296 45.0579 167.37 44.2516H168.74C168.703 44.7673 168.586 45.2829 168.391 45.7986C168.204 46.3049 167.957 46.7783 167.65 47.219C167.342 47.6502 166.998 48.0206 166.616 48.33C166.234 48.6394 165.833 48.855 165.414 48.9769C166.057 49.1269 166.639 49.4269 167.161 49.8769C167.692 50.3269 168.125 50.8988 168.46 51.5926C168.796 52.2864 168.996 53.0833 169.061 53.9834H167.692C167.645 53.0083 167.431 52.1974 167.049 51.5504C166.667 50.9035 166.15 50.4113 165.498 50.0738C164.855 49.7363 164.11 49.5582 163.262 49.5394V53.9834H161.991Z" fill="#171717"/>
<path d="M176.669 45.3064H172.715V48.5409H176.25V49.5957H172.715V52.9286H176.669V53.9834H171.443V44.2516H176.669V45.3064Z" fill="#171717"/>
<path d="M179.585 53.9834V44.2516H182.716C183.479 44.2516 184.108 44.3782 184.602 44.6313C185.105 44.8845 185.478 45.2267 185.72 45.658C185.971 46.0799 186.097 46.5627 186.097 47.1065C186.097 47.7721 185.892 48.33 185.482 48.78C185.072 49.23 184.541 49.5253 183.889 49.666C184.392 49.8347 184.84 50.1113 185.231 50.4957C185.631 50.8707 185.962 51.3489 186.223 51.9302C186.493 52.5114 186.67 53.1958 186.754 53.9834H185.384C185.319 53.1865 185.133 52.5114 184.826 51.9583C184.527 51.3958 184.108 50.9598 183.568 50.6504C183.214 50.4535 182.813 50.3082 182.366 50.2144C181.919 50.1207 181.416 50.0738 180.857 50.0738V53.9834H179.585ZM180.857 49.005H182.729C183.419 49.005 183.931 48.8269 184.267 48.4706C184.611 48.105 184.784 47.6549 184.784 47.1205C184.784 46.5674 184.616 46.1267 184.281 45.7986C183.945 45.4705 183.424 45.3064 182.716 45.3064H180.857V49.005Z" fill="#171717"/>
</svg>
