<svg width="257" height="81" viewBox="0 0 257 81" fill="none" xmlns="http://www.w3.org/2000/svg">
<path d="M61.7418 40.5036C61.7418 36.4526 61.2917 33.9645 60.2181 30.8644C60.2181 30.8644 58.0897 25.2538 55.5062 22.5696C52.7047 19.659 46.5976 17.3112 46.5976 17.3112C44.0008 16.4406 42.7651 16.5752 39.3846 16.5752L25.0301 16.5751C22.3065 16.5751 20.5247 19.5323 21.6493 22.0128C23.8528 26.8732 26.6084 34.0726 26.6084 39.6809C26.6084 45.5857 23.6779 53.8895 21.5202 59.203C20.5333 61.6335 22.2946 64.3872 24.9179 64.3942L39.3846 64.4324C44.3847 64.4324 48.5275 63.5038 51.8131 61.6466C55.1465 59.7419 57.6228 57.004 59.2417 53.4326C60.9084 49.8611 61.7418 45.5516 61.7418 40.5036Z" fill="#2B63E2"/>
<path d="M37.2621 47.291H31.6685" stroke="white" stroke-width="2.67857" stroke-linecap="round"/>
<path d="M45.0914 33.0053H31.6685" stroke="white" stroke-width="2.67857" stroke-linecap="round"/>
<path d="M43.2102 40.3766H31.6685" stroke="white" stroke-width="2.67857" stroke-linecap="round"/>
<path d="M36.5765 25.8625H29.4336" stroke="white" stroke-width="2.67857" stroke-linecap="round"/>
<path d="M49.0765 54.4339H29.4336" stroke="white" stroke-width="2.67857" stroke-linecap="round"/>
<path d="M45.7354 24.3777L50.5222 22.8734C50.8997 22.7547 51.3117 22.8467 51.6028 23.1146L54.9477 26.1918C55.2725 26.4906 55.3886 26.9541 55.2429 27.3708L53.6272 31.9935C53.4854 32.3995 53.121 32.6864 52.6931 32.7292L45.463 33.4522C44.7661 33.5219 44.1807 32.9346 44.2526 32.2379L44.9668 25.3194C45.0121 24.8803 45.3142 24.5101 45.7354 24.3777Z" fill="#EF9E4D"/>
<path d="M49.1341 28.3345L44.5364 33.0978M50.5222 22.8734L45.7354 24.3777C45.3142 24.5101 45.0121 24.8803 44.9668 25.3194L44.2526 32.2379C44.1807 32.9346 44.7661 33.5219 45.463 33.4522L52.6931 32.7292C53.121 32.6864 53.4854 32.3995 53.6272 31.9935L55.2429 27.3708C55.3886 26.9541 55.2725 26.4906 54.9477 26.1918L51.6028 23.1146C51.3117 22.8467 50.8997 22.7547 50.5222 22.8734Z" stroke="white" stroke-width="1.78571" stroke-linecap="round"/>
<path d="M49.0223 28.4315L46.1394 31.4473" stroke="#171717" stroke-width="1.78571" stroke-linecap="round"/>
<circle cx="49.146" cy="28.1402" r="1.4439" fill="#171717"/>
<rect x="51.5923" y="17.2374" width="12.257" height="4.76019" rx="2.38009" transform="rotate(42 51.5923 17.2374)" fill="#171717" stroke="white" stroke-width="1.78571" stroke-linecap="round"/>
<path d="M80.3501 43.9828V16.0628H90.1101C93.0968 16.0628 95.6834 16.6362 97.8701 17.7828C100.083 18.9295 101.803 20.5562 103.03 22.6628C104.257 24.7695 104.87 27.2362 104.87 30.0628C104.87 32.8895 104.257 35.3428 103.03 37.4228C101.803 39.5028 100.083 41.1162 97.8701 42.2628C95.6834 43.4095 93.0968 43.9828 90.1101 43.9828H80.3501ZM85.9901 39.1828H89.9101C92.8434 39.1828 95.0968 38.3828 96.6701 36.7828C98.2701 35.1828 99.0701 32.9428 99.0701 30.0628C99.0701 27.1828 98.2701 24.9162 96.6701 23.2628C95.0968 21.6095 92.8434 20.7828 89.9101 20.7828H85.9901V39.1828Z" fill="#2B63E2"/>
<path d="M163.788 43.9828V16.0628H169.428V27.3828C171.454 27.3828 173.214 26.9295 174.708 26.0228C176.201 25.0895 177.388 23.7828 178.268 22.1028C179.148 20.3962 179.641 18.3828 179.748 16.0628H185.828C185.774 17.5828 185.468 19.0762 184.908 20.5428C184.374 22.0095 183.668 23.3695 182.788 24.6228C181.934 25.8495 180.974 26.9162 179.908 27.8228C178.841 28.7028 177.721 29.3295 176.548 29.7028C178.308 30.2095 179.908 31.1028 181.348 32.3828C182.788 33.6628 183.974 35.2895 184.908 37.2628C185.868 39.2095 186.481 41.4495 186.748 43.9828H180.668C180.508 41.4495 179.934 39.3028 178.948 37.5428C177.961 35.7562 176.654 34.3962 175.028 33.4628C173.428 32.5295 171.561 32.0628 169.428 32.0628V43.9828H163.788Z" fill="#2B63E2"/>
<path d="M198.323 44.2628C196.377 44.2628 194.657 43.7828 193.163 42.8228C191.67 41.8362 190.497 40.4895 189.643 38.7828C188.79 37.0495 188.363 35.0895 188.363 32.9028C188.363 30.6895 188.79 28.7295 189.643 27.0228C190.497 25.3162 191.67 23.9828 193.163 23.0228C194.657 22.0362 196.377 21.5428 198.323 21.5428C200.083 21.5428 201.617 21.9962 202.923 22.9028C204.23 23.8095 205.177 25.0628 205.763 26.6628V21.8228H211.443V43.9828H208.723C207.817 43.9828 207.097 43.7162 206.563 43.1828C206.03 42.6228 205.763 41.8895 205.763 40.9828V39.1028C205.177 40.7295 204.23 41.9962 202.923 42.9028C201.617 43.8095 200.083 44.2628 198.323 44.2628ZM199.923 39.3428C200.963 39.3428 201.923 39.0895 202.803 38.5828C203.683 38.0762 204.39 37.3428 204.923 36.3828C205.483 35.4228 205.763 34.2628 205.763 32.9028C205.763 31.5162 205.483 30.3428 204.923 29.3828C204.39 28.4228 203.683 27.7028 202.803 27.2228C201.923 26.7162 200.963 26.4628 199.923 26.4628C198.937 26.4628 197.99 26.7162 197.083 27.2228C196.203 27.7028 195.483 28.4228 194.923 29.3828C194.39 30.3428 194.123 31.5162 194.123 32.9028C194.123 34.2628 194.39 35.4228 194.923 36.3828C195.483 37.3428 196.203 38.0762 197.083 38.5828C197.99 39.0895 198.937 39.3428 199.923 39.3428Z" fill="#2B63E2"/>
<path d="M225.033 44.2628C223.433 44.2628 221.993 44.0095 220.713 43.5028C219.433 42.9695 218.366 42.2362 217.513 41.3028C216.659 40.3695 216.059 39.3295 215.713 38.1828L220.993 36.9828C221.233 37.8628 221.713 38.5695 222.433 39.1028C223.153 39.6095 223.993 39.8628 224.953 39.8628C226.073 39.8628 226.913 39.6495 227.473 39.2228C228.059 38.7962 228.353 38.2628 228.353 37.6228C228.353 36.9562 228.046 36.4495 227.433 36.1028C226.846 35.7295 226.073 35.4362 225.113 35.2228C224.179 34.9828 223.179 34.7295 222.113 34.4628C221.046 34.1695 220.033 33.7962 219.073 33.3428C218.113 32.8628 217.326 32.2228 216.713 31.4228C216.126 30.5962 215.833 29.5028 215.833 28.1428C215.833 26.9428 216.179 25.8362 216.873 24.8228C217.593 23.8095 218.606 23.0095 219.913 22.4228C221.219 21.8362 222.779 21.5428 224.593 21.5428C226.166 21.5428 227.553 21.7828 228.753 22.2628C229.953 22.7428 230.939 23.4362 231.713 24.3428C232.486 25.2228 233.019 26.2628 233.313 27.4628L228.193 28.8228C227.953 27.8895 227.526 27.1828 226.913 26.7028C226.326 26.1962 225.499 25.9428 224.433 25.9428C223.419 25.9428 222.646 26.1428 222.113 26.5428C221.579 26.9162 221.313 27.4228 221.313 28.0628C221.313 28.7295 221.606 29.2495 222.193 29.6228C222.806 29.9695 223.579 30.2762 224.513 30.5428C225.473 30.7828 226.486 31.0495 227.553 31.3428C228.619 31.6095 229.619 31.9828 230.553 32.4628C231.513 32.9428 232.286 33.5962 232.873 34.4228C233.486 35.2495 233.793 36.3428 233.793 37.7028C233.793 38.9028 233.433 40.0095 232.713 41.0228C231.993 42.0095 230.979 42.7962 229.673 43.3828C228.366 43.9695 226.819 44.2628 225.033 44.2628Z" fill="#2B63E2"/>
<path d="M151.757 21.8228C152.237 21.7162 152.651 21.5162 152.997 21.2228C153.344 20.9295 153.611 20.5828 153.797 20.1828C154.011 19.7828 154.117 19.3828 154.117 18.9828V16.3428H148.517V19.9028C148.517 20.4895 148.344 20.9562 147.997 21.3028C147.677 21.6495 147.224 21.8228 146.637 21.8228H144.957V26.4228H148.397V37.1028C148.397 39.3962 148.997 41.1695 150.197 42.4228C151.424 43.6495 153.077 44.2628 155.157 44.2628C156.064 44.2628 156.891 44.1295 157.637 43.8628C158.384 43.5962 159.104 43.1828 159.797 42.6228L157.797 38.7428C157.531 38.9562 157.251 39.1162 156.957 39.2228C156.691 39.3295 156.397 39.3828 156.077 39.3828C155.571 39.3828 155.117 39.2095 154.717 38.8628C154.317 38.5162 154.117 37.9962 154.117 37.3028V26.4228H158.997V21.8228H151.757Z" fill="#2B63E2"/>
<path d="M124.341 33.4228C124.341 34.5695 124.141 35.5962 123.741 36.5028C123.341 37.4095 122.768 38.1295 122.021 38.6628C121.274 39.1695 120.394 39.4228 119.381 39.4228C117.914 39.4228 116.728 38.9428 115.821 37.9828C114.914 36.9962 114.461 35.6095 114.461 33.8228V21.8228H108.861V34.7828C108.861 36.7828 109.208 38.4895 109.901 39.9028C110.594 41.3162 111.581 42.3962 112.861 43.1428C114.168 43.8895 115.701 44.2628 117.461 44.2628C118.821 44.2628 120.061 43.9295 121.181 43.2628C122.328 42.5695 123.261 41.5028 123.981 40.0628C124.111 39.8119 124.231 39.5492 124.341 39.2747V40.9828C124.341 41.8895 124.608 42.6228 125.141 43.1828C125.701 43.7162 126.434 43.9828 127.341 43.9828H130.021V21.8228H124.341V33.4228Z" fill="#2B63E2"/>
<path d="M141.149 38.503L141.147 21.8228H135.467L135.463 42.063C135.463 42.6497 135.287 43.1163 134.935 43.463C134.61 43.8097 134.15 43.983 133.554 43.983H138.644L138.659 43.9828C139.017 43.9745 139.665 43.6723 140.012 43.383C140.364 43.0897 140.635 42.743 140.824 42.343C141.021 41.9801 141.129 41.6172 141.147 41.2543L141.149 38.503Z" fill="#2B63E2"/>
<path d="M135.468 19.3328V12.8977H137.718C138.406 12.8977 139.002 13.0298 139.506 13.2941C140.016 13.5584 140.413 13.9333 140.695 14.4189C140.978 14.9044 141.119 15.473 141.119 16.1245C141.119 16.776 140.978 17.3414 140.695 17.8208C140.413 18.3002 140.016 18.6721 139.506 18.9364C139.002 19.2007 138.406 19.3328 137.718 19.3328H135.468Z" fill="#2B63E2"/>
<path d="M80.3501 55.8145H82.0619L86.8129 66.5201H86.219L90.9876 55.8145H92.6994V67.9791H91.0924V57.4845L91.7212 57.5372L87.0924 67.9791H85.957L81.3108 57.5372L81.9396 57.4845V67.9791H80.3501V55.8145Z" fill="#171717"/>
<path d="M102.137 68.1022C101.287 68.1022 100.489 67.9498 99.7439 67.6451C98.9987 67.3404 98.3465 66.9185 97.7876 66.3794C97.2287 65.8286 96.792 65.1724 96.4776 64.4106C96.1748 63.6488 96.0234 62.8109 96.0234 61.8968C96.0234 60.9827 96.1748 60.1506 96.4776 59.4006C96.792 58.6505 97.2287 58.0001 97.7876 57.4493C98.3465 56.8868 98.9987 56.4532 99.7439 56.1485C100.489 55.8438 101.287 55.6914 102.137 55.6914C102.999 55.6914 103.802 55.8438 104.547 56.1485C105.293 56.4532 105.939 56.8868 106.486 57.4493C107.045 58.0001 107.476 58.6505 107.779 59.4006C108.093 60.1506 108.25 60.9827 108.25 61.8968C108.25 62.8109 108.093 63.6488 107.779 64.4106C107.476 65.1724 107.045 65.8286 106.486 66.3794C105.939 66.9185 105.293 67.3404 104.547 67.6451C103.802 67.9498 102.999 68.1022 102.137 68.1022ZM102.137 66.6959C102.999 66.6959 103.761 66.5025 104.425 66.1158C105.101 65.729 105.63 65.1782 106.015 64.4633C106.411 63.7367 106.608 62.8812 106.608 61.8968C106.608 60.9124 106.411 60.0627 106.015 59.3478C105.63 58.633 105.101 58.0822 104.425 57.6954C103.761 57.297 102.999 57.0977 102.137 57.0977C101.287 57.0977 100.518 57.297 99.8313 57.6954C99.1559 58.0822 98.626 58.633 98.2417 59.3478C97.8575 60.0627 97.6653 60.9124 97.6653 61.8968C97.6653 62.8812 97.8575 63.7367 98.2417 64.4633C98.626 65.1782 99.1559 65.729 99.8313 66.1158C100.518 66.5025 101.287 66.6959 102.137 66.6959Z" fill="#171717"/>
<path d="M121.161 55.8145V67.9791H119.571L113.178 58.3283V67.9791H111.589V55.8145H113.178L119.571 65.4478V55.8145H121.161Z" fill="#171717"/>
<path d="M131.626 57.1329H126.683V61.1761H131.102V62.4945H126.683V66.6607H131.626V67.9791H125.093V55.8145H131.626V57.1329Z" fill="#171717"/>
<path d="M134.241 55.8145H136.022L139.393 62.6703H138.66L142.014 55.8145H143.795L139.83 63.3734V67.9791H138.223V63.3734L134.241 55.8145Z" fill="#171717"/>
<path d="M151.805 55.8145H160.05V57.1329H156.749V67.9791H155.142V57.1329H151.805V55.8145Z" fill="#171717"/>
<path d="M163.264 67.9791V55.8145H167.176C168.131 55.8145 168.917 55.9727 169.534 56.2891C170.163 56.6055 170.629 57.0333 170.932 57.5724C171.246 58.0997 171.403 58.7033 171.403 59.383C171.403 60.2151 171.147 60.9124 170.635 61.4749C170.122 62.0374 169.459 62.4066 168.644 62.5824C169.272 62.7933 169.831 63.139 170.32 63.6195C170.821 64.0883 171.234 64.686 171.561 65.4126C171.898 66.1392 172.119 66.9947 172.224 67.9791H170.512C170.431 66.983 170.198 66.1392 169.814 65.4478C169.441 64.7446 168.917 64.1996 168.242 63.8129C167.799 63.5668 167.299 63.3852 166.74 63.268C166.181 63.1508 165.552 63.0922 164.853 63.0922V67.9791H163.264ZM164.853 61.7562H167.194C168.055 61.7562 168.696 61.5335 169.115 61.0882C169.546 60.6311 169.761 60.0686 169.761 59.4006C169.761 58.7091 169.552 58.1583 169.133 57.7482C168.713 57.338 168.061 57.1329 167.176 57.1329H164.853V61.7562Z" fill="#171717"/>
<path d="M181.228 55.8145L185.63 67.9791H183.936L179.918 56.6934H180.687L176.669 67.9791H174.993L179.394 55.8145H181.228ZM177.141 63.9535H183.377L183.796 65.272H176.739L177.141 63.9535Z" fill="#171717"/>
<path d="M193.71 68.1022C192.859 68.1022 192.068 67.9498 191.334 67.6451C190.6 67.3404 189.954 66.9127 189.395 66.3619C188.836 65.8111 188.4 65.1548 188.085 64.393C187.782 63.6313 187.631 62.7992 187.631 61.8968C187.631 60.9827 187.782 60.1506 188.085 59.4006C188.4 58.6388 188.836 57.9825 189.395 57.4317C189.954 56.8809 190.6 56.4532 191.334 56.1485C192.068 55.8438 192.859 55.6914 193.71 55.6914C194.583 55.6914 195.392 55.8438 196.137 56.1485C196.883 56.4414 197.523 56.8809 198.059 57.4669C198.606 58.0411 199.008 58.7443 199.264 59.5764L197.744 60.051C197.418 59.1252 196.918 58.4044 196.242 57.8888C195.567 57.3614 194.728 57.0977 193.727 57.0977C192.889 57.0977 192.132 57.297 191.456 57.6954C190.781 58.0822 190.245 58.633 189.849 59.3478C189.465 60.0627 189.273 60.9124 189.273 61.8968C189.273 62.8695 189.465 63.7192 189.849 64.4458C190.234 65.1606 190.758 65.7173 191.421 66.1158C192.097 66.5025 192.859 66.6959 193.71 66.6959C194.629 66.6959 195.45 66.4498 196.172 65.9575C196.906 65.4653 197.453 64.7856 197.814 63.9184L199.351 64.27C199.06 65.0786 198.635 65.77 198.076 66.3443C197.529 66.9068 196.877 67.3404 196.12 67.6451C195.375 67.9498 194.571 68.1022 193.71 68.1022Z" fill="#171717"/>
<path d="M202.838 67.9791V55.8145H204.428V61.053C205.499 61.0296 206.396 60.7952 207.118 60.3498C207.851 59.8928 208.416 59.2775 208.812 58.504C209.22 57.7189 209.47 56.8223 209.563 55.8145H211.275C211.228 56.459 211.083 57.1036 210.838 57.7482C210.605 58.381 210.297 58.9728 209.912 59.5236C209.528 60.0627 209.097 60.5256 208.62 60.9124C208.142 61.2991 207.642 61.5687 207.118 61.721C207.921 61.9085 208.649 62.2835 209.301 62.8461C209.965 63.4086 210.506 64.1235 210.926 64.9907C211.345 65.8579 211.595 66.8541 211.677 67.9791H209.965C209.907 66.7603 209.639 65.7466 209.161 64.938C208.684 64.1293 208.038 63.5141 207.222 63.0922C206.419 62.6703 205.487 62.4476 204.428 62.4242V67.9791H202.838Z" fill="#171717"/>
<path d="M221.187 57.1329H216.243V61.1761H220.663V62.4945H216.243V66.6607H221.187V67.9791H214.654V55.8145H221.187V57.1329Z" fill="#171717"/>
<path d="M224.832 67.9791V55.8145H228.744C229.699 55.8145 230.485 55.9727 231.103 56.2891C231.731 56.6055 232.197 57.0333 232.5 57.5724C232.814 58.0997 232.971 58.7033 232.971 59.383C232.971 60.2151 232.715 60.9124 232.203 61.4749C231.691 62.0374 231.027 62.4066 230.212 62.5824C230.84 62.7933 231.399 63.139 231.889 63.6195C232.389 64.0883 232.803 64.686 233.129 65.4126C233.466 66.1392 233.688 66.9947 233.792 67.9791H232.081C231.999 66.983 231.766 66.1392 231.382 65.4478C231.009 64.7446 230.485 64.1996 229.81 63.8129C229.367 63.5668 228.867 63.3852 228.308 63.268C227.749 63.1508 227.12 63.0922 226.421 63.0922V67.9791H224.832ZM226.421 61.7562H228.762C229.624 61.7562 230.264 61.5335 230.683 61.0882C231.114 60.6311 231.33 60.0686 231.33 59.4006C231.33 58.7091 231.12 58.1583 230.701 57.7482C230.282 57.338 229.629 57.1329 228.744 57.1329H226.421V61.7562Z" fill="#171717"/>
</svg>
